<?xml version="1.0" encoding="UTF-8" standalone="no"?>
<!-- Created with Inkscape (http://www.inkscape.org/) -->

<svg
   width="190.86421mm"
   height="48.40696mm"
   viewBox="0 0 190.86421 48.40696"
   version="1.1"
   id="svg5"
   xml:space="preserve"
   xmlns:inkscape="http://www.inkscape.org/namespaces/inkscape"
   xmlns:sodipodi="http://sodipodi.sourceforge.net/DTD/sodipodi-0.dtd"
   xmlns="http://www.w3.org/2000/svg"
   xmlns:svg="http://www.w3.org/2000/svg"><sodipodi:namedview
     id="namedview7"
     pagecolor="#ffffff"
     bordercolor="#000000"
     borderopacity="0.25"
     inkscape:showpageshadow="2"
     inkscape:pageopacity="0.0"
     inkscape:pagecheckerboard="0"
     inkscape:deskcolor="#d1d1d1"
     inkscape:document-units="mm"
     showgrid="false" /><defs
     id="defs2"><clipPath
       clipPathUnits="userSpaceOnUse"
       id="clipPath196"><path
         d="M 0,0 H 595.275 V 841.89 H 0 Z"
         id="path194"
         inkscape:connector-curvature="0" /></clipPath></defs><g
     inkscape:label="Camada 1"
     inkscape:groupmode="layer"
     id="layer1"
     transform="translate(-11.408749,-77.512457)"><g
       inkscape:label="Layer 1"
       id="layer1-5"
       transform="matrix(0.1320869,0,0,0.1320869,0.68475577,88.741327)"><g
         id="g190"
         transform="matrix(8.5843859,0,0,-8.5843859,-1748.0892,933.6777)"
         inkscape:export-filename="logo_estacio.svg"
         inkscape:export-xdpi="68.032898"
         inkscape:export-ydpi="68.032898"><g
           id="g192"
           clip-path="url(#clipPath196)"><g
             id="g198"
             transform="translate(281.5443,85.0068)"><path
               d="m 0,0 v 0 h -6.386 c -2.468,0 -4.381,0.185 -5.718,0.576 -1.314,0.369 -2.444,1.038 -3.366,2.006 -2.029,2.121 -3.044,5.095 -3.044,8.923 0,4.219 1.291,7.447 3.897,9.637 0.83,0.692 1.706,1.175 2.628,1.452 0.922,0.277 2.144,0.416 3.689,0.416 H 0 v -4.105 h -6.386 c -1.66,0 -2.882,-0.115 -3.643,-0.345 -0.784,-0.231 -1.43,-0.669 -1.937,-1.337 -0.346,-0.462 -0.576,-0.923 -0.692,-1.361 -0.115,-0.438 -0.207,-1.222 -0.299,-2.375 H 0 V 9.406 h -12.957 c 0.161,-1.959 0.737,-3.342 1.752,-4.127 0.991,-0.783 2.674,-1.175 5.026,-1.175 H 0 Z m 19.136,5.279 v 0 C 19.136,4.242 18.882,3.274 18.352,2.352 17.845,1.429 17.199,0.784 16.416,0.438 15.747,0.138 14.479,0 12.634,0 H 3.089 v 3.597 h 8.231 c 1.061,0 1.775,0.023 2.145,0.069 0.76,0.092 1.152,0.553 1.152,1.383 0,0.738 -0.3,1.222 -0.899,1.453 -0.323,0.115 -0.968,0.161 -1.914,0.161 H 9.015 c -1.937,0 -3.366,0.346 -4.266,1.037 -1.268,0.992 -1.89,2.398 -1.89,4.22 0,1.752 0.645,3.112 1.937,4.08 0.691,0.531 1.936,0.808 3.735,0.808 h 9.844 v -3.597 h -8.184 c -0.9,0 -1.499,-0.047 -1.776,-0.138 -0.53,-0.208 -0.784,-0.669 -0.784,-1.338 0,-0.783 0.323,-1.268 0.969,-1.475 0.346,-0.116 1.014,-0.185 2.029,-0.185 h 2.697 c 1.844,0 3.274,-0.392 4.288,-1.222 1.015,-0.83 1.522,-2.029 1.522,-3.574 M 32.693,0 V 0 H 29.327 C 27.298,0 25.869,0.461 25.038,1.406 24.185,2.352 23.77,3.988 23.77,6.317 v 6.894 h -2.928 v 3.597 h 2.928 v 6.202 h 4.634 v -6.202 h 4.289 V 13.211 H 28.404 V 7.124 c 0,-1.452 0.162,-2.398 0.462,-2.859 0.322,-0.438 0.968,-0.668 1.982,-0.668 h 1.845 z m 10.859,10.214 v 0 -3.574 h -2.19 c -1.153,0 -1.729,-0.531 -1.729,-1.568 0,-0.991 0.83,-1.475 2.49,-1.475 h 1.429 V 0 h -1.199 c -1.545,0 -2.49,0 -2.859,0.023 -1.13,0.115 -2.006,0.415 -2.628,0.877 -1.291,0.944 -1.937,2.305 -1.937,4.103 0,1.153 0.277,2.167 0.853,3.067 0.554,0.876 1.291,1.475 2.214,1.774 0.784,0.254 2.052,0.37 3.804,0.37 z m 0,6.594 v 0 -3.597 h -7.401 v 3.597 z m 0,5.233 v 0 -3.366 H 41.246 Z M 70.435,0 v 0 h -6.317 c -1.683,0 -3.021,0.162 -4.012,0.507 -1.015,0.346 -1.891,0.945 -2.651,1.798 -1.453,1.615 -2.168,3.712 -2.168,6.271 0,2.906 0.853,5.096 2.583,6.571 1.291,1.107 3.366,1.661 6.248,1.661 h 6.317 v -3.597 h -5.51 c -1.73,0 -2.997,-0.369 -3.759,-1.107 -0.76,-0.737 -1.152,-1.96 -1.152,-3.642 0,-1.707 0.415,-2.952 1.268,-3.713 0.853,-0.761 2.236,-1.152 4.15,-1.152 h 5.003 z m 8.231,18.537 v 0 h -4.634 v 4.473 h 4.634 z M 78.666,0 v 0 h -4.634 v 16.808 h 4.634 z M 43.552,18.675 v 0 3.366 l 0.669,0.969 h 4.242 L 43.944,18.675 Z M 43.552,0 v 0 3.597 h 3.919 V 6.64 h -3.919 v 3.574 h 3.919 v 0.276 c 0,1.038 -0.253,1.73 -0.76,2.121 -0.508,0.392 -1.43,0.6 -2.767,0.6 h -0.392 v 3.597 h 0.392 c 1.798,0 2.997,-0.07 3.597,-0.185 1.245,-0.23 2.259,-0.784 3.043,-1.683 1.015,-1.176 1.522,-2.997 1.522,-5.464 V 0 Z m 47.426,13.487 v 0 h -0.093 c -2.72,0 -4.08,-1.682 -4.08,-5.095 0,-3.366 1.406,-5.049 4.173,-5.072 v -3.55 h -0.162 c -2.72,0 -4.842,0.76 -6.409,2.305 -1.545,1.545 -2.329,3.666 -2.329,6.363 0,2.629 0.807,4.726 2.398,6.271 1.614,1.545 3.758,2.329 6.479,2.329 h 0.023 z m 4.173,-5.095 c 0,3.366 -1.406,5.049 -4.173,5.095 v 3.551 c 2.789,0 4.98,-0.784 6.548,-2.329 1.567,-1.545 2.351,-3.712 2.351,-6.478 0,-2.628 -0.807,-4.704 -2.421,-6.202 C 95.865,0.53 93.721,-0.208 90.978,-0.23 v 3.55 h 0.046 c 2.743,0 4.127,1.683 4.127,5.072"
               style="fill:#1d1d1b;fill-opacity:1;fill-rule:nonzero;stroke:none"
               id="path200"
               inkscape:connector-curvature="0" /></g><g
             id="g202"
             transform="translate(214.0514,99.6369)"><path
               d="m 0,0 18.078,18.058 c 1.277,1.297 3.373,1.297 4.649,0 L 40.786,0 c 1.277,-1.277 1.277,-3.352 0,-4.63 L 22.727,-22.687 c -1.276,-1.298 -3.372,-1.298 -4.649,0 L 0,-4.63 C -1.277,-3.352 -1.277,-1.277 0,0"
               style="fill:#ffffff;fill-opacity:1;fill-rule:nonzero;stroke:none"
               id="path204"
               inkscape:connector-curvature="0" /></g><g
             id="g206"
             transform="translate(234.4442,76.7296)"><path
               d="m 0,0 c -0.638,0 -1.297,0.26 -1.796,0.738 l -18.058,18.079 c -0.479,0.479 -0.738,1.137 -0.738,1.776 l 7.782,-0.439 0.499,-8.481 0.479,8.421 L -1.137,19.455 -0.539,9.379 -8.281,8.92 -0.499,8.46 Z"
               style="fill:#28acc0;fill-opacity:1;fill-rule:nonzero;stroke:none"
               id="path208"
               inkscape:connector-curvature="0" /></g><g
             id="g210"
             transform="translate(245.6386,86.8665)"><path
               d="m 0,0 v 0 l -0.08,-0.08 -10.556,-0.618 0.599,10.017 10.616,0.618 z m 9.398,10.456 v 0 C 9.398,9.817 9.159,9.159 8.66,8.68 L 2.155,2.155 1.696,10.017 Z M -2.235,-2.215 -9.398,-9.398 c -0.499,-0.479 -1.138,-0.739 -1.796,-0.739 l 0.499,8.401 z"
               style="fill:#28acc0;fill-opacity:1;fill-rule:nonzero;stroke:none"
               id="path212"
               inkscape:connector-curvature="0" /></g><g
             id="g214"
             transform="translate(234.4442,117.9147)"><path
               d="m 0,0 c 0.659,0 1.297,-0.26 1.796,-0.738 l 18.058,-18.079 c 0.499,-0.479 0.739,-1.137 0.739,-1.775 l -7.762,0.438 -0.499,8.481 -0.499,-8.421 -10.676,0.639 -0.598,10.076 7.742,0.459 -7.802,0.459 z"
               style="fill:#7ac6c0;fill-opacity:1;fill-rule:nonzero;stroke:none"
               id="path216"
               inkscape:connector-curvature="0" /></g><g
             id="g218"
             transform="translate(225.485,109.9932)"><path
               d="M 0,0 V 0 L 7.164,7.183 C 7.662,7.662 8.321,7.922 8.959,7.922 L 8.48,-0.48 Z m -2.215,-2.215 v 0 l 0.06,0.08 L 8.4,-1.517 7.822,-11.534 -2.814,-12.152 Z m -8.68,-8.68 6.525,6.525 0.459,-7.862 -7.722,-0.439 c 0,0.638 0.259,1.297 0.738,1.776"
               style="fill:#c0e1d7;fill-opacity:1;fill-rule:nonzero;stroke:none"
               id="path220"
               inkscape:connector-curvature="0" /></g></g></g></g></g></svg>
