<?xml version="1.0" encoding="UTF-8" standalone="no"?>
<!-- Created with Inkscape (http://www.inkscape.org/) -->

<svg
   width="194.52161mm"
   height="27.520218mm"
   viewBox="0 0 194.52161 27.520218"
   version="1.1"
   id="svg5"
   xml:space="preserve"
   xmlns:inkscape="http://www.inkscape.org/namespaces/inkscape"
   xmlns:sodipodi="http://sodipodi.sourceforge.net/DTD/sodipodi-0.dtd"
   xmlns="http://www.w3.org/2000/svg"
   xmlns:svg="http://www.w3.org/2000/svg"><sodipodi:namedview
     id="namedview7"
     pagecolor="#ffffff"
     bordercolor="#000000"
     borderopacity="0.25"
     inkscape:showpageshadow="2"
     inkscape:pageopacity="0.0"
     inkscape:pagecheckerboard="0"
     inkscape:deskcolor="#d1d1d1"
     inkscape:document-units="mm"
     showgrid="false" /><defs
     id="defs2" /><style
     type="text/css"
     id="style103277">
	.st0{fill:#0056D2;}
</style><path
     class="st0"
     d="m 26.904341,13.71148 c 0,-7.4878302 6.15882,-13.5494102 13.873565,-13.5494102 7.779567,0 13.938387,6.06158 13.938387,13.5494102 0,7.42301 -6.15882,13.61424 -13.938387,13.61424 -7.714745,-0.0324 -13.873565,-6.19123 -13.873565,-13.61424 z m 21.134486,0 c 0,-3.7601202 -3.241482,-7.0340202 -7.260921,-7.0340202 -3.954617,0 -7.228516,3.30631 -7.228516,7.0340202 0,3.79254 3.241482,7.09886 7.228516,7.09886 4.019439,0 7.260921,-3.30632 7.260921,-7.09886 z M 166.8393,13.93839 c 0,-8.2009602 6.67746,-13.7763202 12.73904,-13.7763202 4.11669,0 6.48297,1.26418 8.10372,3.69529 l 0.64829,-3.20907 h 6.19124 V 26.80709 h -6.19124 l -0.81037,-2.69044 c -1.81523,1.97731 -4.08428,3.20907 -7.94164,3.20907 -5.96433,-0.0324 -12.73904,-5.2512 -12.73904,-13.38733 z m 21.16691,-0.0648 c 0,-3.9546202 -3.2739,-7.1961002 -7.22852,-7.1961002 -3.98702,0 -7.22852,3.2739 -7.22852,7.2285102 v 0.0324 c 0,3.63047 3.2415,6.87195 7.22852,6.87195 3.95462,0 7.22852,-3.24148 7.22852,-6.93678 z M 159.22181,3.6953198 v -3.01459 H 152.4471 V 26.83953 h 6.77471 V 12.73907 c 0,-4.2463502 2.10696,-6.4505602 5.73742,-6.4505602 0.22691,0 0.45381,0.0324 0.68072,0.0324 L 166.90412,1.9802475e-5 c -3.53321,0 -6.09398,1.231759997525 -7.68231,3.695289997525 z m -68.038805,0 v -3.01459 h -6.774702 l 0.06481,26.1588002 h 6.774702 l -0.0325,-14.10046 c 0,-4.2463502 2.07456,-6.4505602 5.70502,-6.4505602 0.22691,0 0.45382,0 0.68072,0.0324 L 98.865235,9.8024746e-6 c -3.56564,0 -6.12641,1.2317599975254 -7.68232,3.6952899975254 z M 57.050163,16.69365 V 0.6807098 h 6.774704 V 15.88328 c 0,3.37115 1.880058,5.34845 5.121553,5.34845 3.63046,0 5.737424,-2.20421 5.737424,-6.45055 V 0.6807098 h 6.774704 V 26.83951 h -6.774704 v -3.01459 c -1.58833,2.46353 -4.181511,3.6953 -7.779567,3.6953 -6.061581,-0.0324 -9.854114,-4.44084 -9.854114,-10.82657 z M 123.0144,13.7439 c 0,-7.3257602 5.25121,-13.5818302 13.58183,-13.5818302 7.71474,0 13.16044,6.19124 13.12802,13.4845902 0,0.71312 -0.0648,1.42625 -0.16207,2.13938 l -19.93514,-0.0324 c 0.77795,3.14424 3.33873,5.41328 7.26093,5.41328 2.36629,0 4.89465,-0.8752 6.45056,-2.85251 l 4.63532,3.69529 c -2.36629,3.37115 -6.58021,5.31604 -11.02106,5.31604 -7.90922,-0.0324 -13.9708,-5.93192 -13.93839,-13.58183 z m 19.87032,-2.72285 c -0.38898,-2.6580202 -3.14425,-4.7001502 -6.38573,-4.7001502 -3.14424,0 -5.6726,1.84764 -6.67747,4.6677402 z m -43.986965,10.08102 6.029155,-3.14424 c 1.00486,2.1718 2.98216,3.43598 5.80226,3.43598 2.59319,0 3.59804,-0.84279 3.59804,-1.97731 0,-4.21393 -14.26253,-1.65316 -14.26253,-11.2803702 0,-5.31604 4.63532,-8.13612999752537 10.40517,-8.13612999752537 4.37601,0 8.23337,1.94488999752537 10.34034,5.54293999752537 l -5.96433,3.14424 c -0.87521,-1.78282 -2.52836,-2.75526 -4.63533,-2.75526 -2.04214,0 -3.047,0.71313 -3.047,1.94489 0,4.0842702 14.26254,1.49108 14.26254,11.2803702 0,5.08914 -4.14909,8.16855 -10.82656,8.16855 -5.73743,-0.0324 -9.72446,-1.91248 -11.701755,-6.22366 z M 4.0078534e-7,13.71148 C 4.0078534e-7,6.1588198 6.1588318,0.0972398 13.873566,0.0972398 c 4.700157,-0.0324 9.108574,2.30145 11.734184,6.22365 l -5.769853,3.33873 c -1.361425,-1.94489 -3.565627,-3.07941 -5.931914,-3.07941 -3.9546172,0 -7.2285172,3.30632 -7.2285172,7.0988602 0,3.79254 3.241483,7.09885 7.2285172,7.09885 2.495942,0 4.797395,-1.26418 6.126403,-3.37114 l 5.737437,3.40356 C 23.176629,24.82978 18.703378,27.29331 13.9384,27.26089 6.1588318,27.29329 4.0078534e-7,21.13449 4.0078534e-7,13.71148 Z m 0,0"
     id="path103279"
     style="stroke-width:0.324148" /></svg>
