<?xml version="1.0" encoding="UTF-8" standalone="no"?>
<!-- Created with Inkscape (http://www.inkscape.org/) -->

<svg
   width="169.49596mm"
   height="38.126743mm"
   viewBox="0 0 169.49596 38.126743"
   version="1.1"
   id="svg5"
   xml:space="preserve"
   xmlns:inkscape="http://www.inkscape.org/namespaces/inkscape"
   xmlns:sodipodi="http://sodipodi.sourceforge.net/DTD/sodipodi-0.dtd"
   xmlns="http://www.w3.org/2000/svg"
   xmlns:svg="http://www.w3.org/2000/svg"><sodipodi:namedview
     id="namedview7"
     pagecolor="#ffffff"
     bordercolor="#000000"
     borderopacity="0.25"
     inkscape:showpageshadow="2"
     inkscape:pageopacity="0.0"
     inkscape:pagecheckerboard="0"
     inkscape:deskcolor="#d1d1d1"
     inkscape:document-units="mm"
     showgrid="false" /><defs
     id="defs2"><clipPath
       clipPathUnits="userSpaceOnUse"
       id="clipPath101906"><path
         d="M 0,500 H 500 V 0 H 0 Z"
         id="path101904" /></clipPath></defs><g
     id="g102162"
     inkscape:export-filename="logo_ciscoAcademy.svg"
     inkscape:export-xdpi="109.74496"
     inkscape:export-ydpi="109.74496"
     transform="translate(-16.334923,-20.770049)"><g
       id="g101896"
       transform="matrix(0.35277776,0,0,-0.35277778,34.772956,43.733593)"><path
         d="M 0,0 V 0 H 8.128 V -32.236 H 0 Z"
         style="fill:#50c3ee;fill-opacity:1;fill-rule:nonzero;stroke:none"
         id="path101898" /></g><g
       id="g101900"
       transform="matrix(0.35277776,0,0,-0.35277778,12.888496,128.02783)"><g
         id="g101902"
         clip-path="url(#clipPath101906)"><g
           id="g101908"
           transform="translate(135.4941,229.749)"><path
             d="m 0,0 v 0 c -0.309,0.104 -2.882,1.653 -6.791,1.653 -5.247,0 -8.848,-3.616 -8.848,-8.575 0,-4.754 3.499,-8.577 8.848,-8.577 3.806,0 6.482,1.447 6.791,1.653 v -8.678 c -1.029,-0.206 -3.705,-1.137 -7.408,-1.137 -9.054,0 -17.079,6.303 -17.08,16.739 0,9.609 7.306,16.738 17.08,16.738 3.806,0 6.688,-0.93 7.408,-1.24 z"
             style="fill:#50c3ee;fill-opacity:1;fill-rule:nonzero;stroke:none"
             id="path101910" /></g><g
           id="g101912"
           transform="translate(50.9233,229.749)"><path
             d="m 0,0 v 0 c -0.412,0.104 -2.983,1.653 -6.894,1.653 -5.246,0 -8.848,-3.616 -8.848,-8.575 0,-4.754 3.499,-8.577 8.848,-8.577 3.808,0 6.482,1.447 6.894,1.653 v -8.678 c -1.029,-0.206 -3.808,-1.137 -7.408,-1.137 -9.157,0 -17.181,6.303 -17.181,16.739 0,9.609 7.304,16.738 17.181,16.738 3.806,0 6.585,-0.93 7.408,-1.24 z"
             style="fill:#50c3ee;fill-opacity:1;fill-rule:nonzero;stroke:none"
             id="path101914" /></g><g
           id="g101916"
           transform="translate(177.9839,222.8271)"><path
             d="m 0,0 v 0 c 0,-9.196 -7.105,-16.739 -16.981,-16.739 -9.875,0 -16.971,7.543 -16.971,16.739 0,9.195 7.096,16.738 16.971,16.738 C -7.105,16.738 0,9.195 0,0 m -16.981,8.472 v 0 c -4.732,0 -8.326,-3.823 -8.326,-8.472 0,-4.65 3.594,-8.474 8.326,-8.474 4.842,0 8.436,3.824 8.436,8.474 0,4.649 -3.594,8.472 -8.436,8.472"
             style="fill:#50c3ee;fill-opacity:1;fill-rule:nonzero;stroke:none"
             id="path101918" /></g><g
           id="g101920"
           transform="translate(100.9238,231.6094)"><path
             d="m 0,0 v 0 c -0.103,0 -3.601,1.032 -6.378,1.032 -3.292,0 -5.042,-1.136 -5.042,-2.686 0,-1.963 2.47,-2.686 3.705,-3.099 l 2.263,-0.724 c 5.246,-1.653 7.717,-5.268 7.717,-9.195 0,-8.059 -7.1,-10.849 -13.376,-10.849 -4.321,0 -8.333,0.827 -8.744,0.93 v 7.439 c 0.72,-0.207 4.114,-1.24 7.715,-1.24 4.013,0 5.865,1.136 5.865,2.996 0,1.653 -1.646,2.584 -3.6,3.204 -0.516,0.206 -1.236,0.413 -1.75,0.619 -4.527,1.447 -8.333,4.03 -8.333,9.403 0,6.096 4.526,10.126 12.037,10.126 3.909,0 7.612,-1.034 7.921,-1.034 z"
             style="fill:#50c3ee;fill-opacity:1;fill-rule:nonzero;stroke:none"
             id="path101922" /></g><g
           id="g101924"
           transform="translate(17.7944,273.6621)"><path
             d="M 0,0 V 0 C 0,2.17 -1.852,4.03 -4.013,4.03 -6.276,4.03 -8.025,2.17 -8.025,0 v -8.474 c 0,-2.273 1.749,-4.029 4.012,-4.029 2.161,0 4.013,1.756 4.013,4.029 z"
             style="fill:#50c3ee;fill-opacity:1;fill-rule:nonzero;stroke:none"
             id="path101926" /></g><g
           id="g101928"
           transform="translate(39.9146,284.7173)"><path
             d="M 0,0 V 0 C 0,2.273 -1.852,4.029 -4.013,4.029 -6.276,4.029 -8.025,2.273 -8.025,0 v -19.529 c 0,-2.273 1.749,-4.03 4.012,-4.03 2.161,0 4.013,1.757 4.013,4.03 z"
             style="fill:#50c3ee;fill-opacity:1;fill-rule:nonzero;stroke:none"
             id="path101930" /></g><g
           id="g101932"
           transform="translate(62.0347,300.0098)"><path
             d="M 0,0 V 0 C 0,2.17 -1.852,4.028 -4.013,4.028 -6.276,4.028 -8.128,2.17 -8.128,0 v -42.88 c 0,-2.273 1.852,-4.03 4.115,-4.03 2.161,0 4.013,1.757 4.013,4.03 z"
             style="fill:#50c3ee;fill-opacity:1;fill-rule:nonzero;stroke:none"
             id="path101934" /></g><g
           id="g101936"
           transform="translate(84.1548,284.7173)"><path
             d="M 0,0 V 0 C 0,2.273 -1.852,4.029 -4.012,4.029 -6.277,4.029 -8.128,2.273 -8.128,0 v -19.529 c 0,-2.273 1.851,-4.03 4.116,-4.03 2.16,0 4.012,1.757 4.012,4.03 z"
             style="fill:#50c3ee;fill-opacity:1;fill-rule:nonzero;stroke:none"
             id="path101938" /></g><g
           id="g101940"
           transform="translate(106.1719,273.6621)"><path
             d="M 0,0 V 0 C 0,2.17 -1.749,4.03 -4.012,4.03 -6.174,4.03 -8.025,2.17 -8.025,0 v -8.474 c 0,-2.273 1.851,-4.029 4.013,-4.029 2.263,0 4.012,1.756 4.012,4.029 z"
             style="fill:#50c3ee;fill-opacity:1;fill-rule:nonzero;stroke:none"
             id="path101942" /></g><g
           id="g101944"
           transform="translate(128.2915,284.7173)"><path
             d="M 0,0 V 0 C 0,2.273 -1.749,4.029 -4.012,4.029 -6.173,4.029 -8.025,2.273 -8.025,0 v -19.529 c 0,-2.273 1.852,-4.03 4.013,-4.03 2.263,0 4.012,1.757 4.012,4.03 z"
             style="fill:#50c3ee;fill-opacity:1;fill-rule:nonzero;stroke:none"
             id="path101946" /></g><g
           id="g101948"
           transform="translate(150.5103,300.0098)"><path
             d="M 0,0 V 0 C 0,2.169 -1.852,4.028 -4.111,4.028 -6.272,4.028 -8.124,2.169 -8.124,0 v -42.88 c 0,-2.274 1.852,-4.03 4.013,-4.03 2.259,0 4.111,1.756 4.111,4.03 z"
             style="fill:#50c3ee;fill-opacity:1;fill-rule:nonzero;stroke:none"
             id="path101950" /></g><g
           id="g101952"
           transform="translate(172.6343,284.7173)"><path
             d="M 0,0 V 0 C 0,2.273 -1.852,4.029 -4.115,4.029 -6.282,4.029 -8.134,2.273 -8.134,0 v -19.529 c 0,-2.273 1.852,-4.03 4.019,-4.03 2.263,0 4.115,1.757 4.115,4.03 z"
             style="fill:#50c3ee;fill-opacity:1;fill-rule:nonzero;stroke:none"
             id="path101954" /></g><g
           id="g101956"
           transform="translate(194.6489,273.6621)"><path
             d="M 0,0 V 0 C 0,2.17 -1.742,4.03 -4.005,4.03 -6.172,4.03 -8.024,2.17 -8.024,0 v -8.474 c 0,-2.273 1.852,-4.029 4.019,-4.029 2.263,0 4.005,1.756 4.005,4.029 z"
             style="fill:#50c3ee;fill-opacity:1;fill-rule:nonzero;stroke:none"
             id="path101958" /></g><g
           id="g101960"
           transform="translate(252.2695,301.8682)"><path
             d="M 0,0 V 0 -34.717 L -23.042,0 h -3.704 v -38.85 h 2.88 V -3.925 L -0.822,-38.85 H 2.675 V 0 Z"
             style="fill:#000000;fill-opacity:1;fill-rule:nonzero;stroke:none"
             id="path101962" /></g><g
           id="g101964"
           transform="translate(283.748,270.665)"><path
             d="m 0,0 v 0 c -0.507,-1.86 -1.536,-3.307 -3.086,-4.339 -1.55,-1.138 -3.292,-1.654 -5.459,-1.654 -1.33,0 -2.675,0.206 -3.909,0.723 -1.234,0.518 -2.359,1.137 -3.292,2.171 -0.822,0.93 -1.646,2.17 -2.153,3.615 -0.618,1.447 -0.933,3.204 -0.933,5.167 h 22.33 c 0,2.583 -0.302,4.959 -0.919,6.922 -0.617,1.963 -1.55,3.617 -2.675,4.857 -1.138,1.239 -2.468,2.273 -4.018,2.789 -1.55,0.62 -3.197,0.931 -4.938,0.931 -1.852,0 -3.498,-0.311 -5.048,-0.931 -1.536,-0.619 -2.976,-1.653 -4.115,-2.892 -1.124,-1.24 -1.947,-2.791 -2.675,-4.651 -0.617,-1.756 -0.919,-3.926 -0.919,-6.302 0,-2.48 0.302,-4.546 1.03,-6.406 0.713,-1.86 1.536,-3.41 2.77,-4.649 1.139,-1.241 2.578,-2.17 4.225,-2.791 1.536,-0.723 3.388,-1.033 5.239,-1.033 2.99,0 5.569,0.723 7.517,2.377 2.057,1.447 3.401,3.513 4.115,6.096 z m -5.459,18.185 v 0 c 1.139,-0.517 2.071,-1.137 2.99,-1.963 0.823,-0.93 1.55,-2.067 2.058,-3.41 C 0.11,11.469 0.412,9.919 0.521,8.059 h -19.353 c 0.315,3.514 1.345,6.199 3.196,8.06 1.742,1.756 4.005,2.686 6.584,2.686 1.235,0 2.469,-0.207 3.593,-0.62"
             style="fill:#000000;fill-opacity:1;fill-rule:nonzero;stroke:none"
             id="path101966" /></g><g
           id="g101968"
           transform="translate(304.7344,288.5405)"><path
             d="M 0,0 V 0 2.479 H -6.584 V 9.298 H -9.259 L -9.465,2.479 H -13.47 V 0 h 4.005 v -19.839 c 0,-2.169 0.522,-3.72 1.647,-4.855 1.138,-1.138 2.674,-1.654 4.731,-1.654 1.139,0 2.373,0.207 3.608,0.516 v 2.376 c -0.727,-0.103 -1.344,-0.206 -1.852,-0.309 -0.521,0 -1.028,-0.103 -1.55,-0.103 -1.125,0 -2.057,0.309 -2.675,1.034 -0.713,0.516 -1.028,1.548 -1.028,2.892 V 0 Z"
             style="fill:#000000;fill-opacity:1;fill-rule:nonzero;stroke:none"
             id="path101970" /></g><g
           id="g101972"
           transform="translate(343.6328,291.0195)"><path
             d="M 0,0 V 0 L -6.995,-24.9 -14.621,0 h -3.703 L -25.731,-25.004 -33.234,0 h -2.88 l 8.531,-28.001 h 3.607 l 7.407,25.108 7.818,-25.108 h 3.498 L 2.771,0 Z"
             style="fill:#000000;fill-opacity:1;fill-rule:nonzero;stroke:none"
             id="path101974" /></g><g
           id="g101976"
           transform="translate(350.5186,270.665)"><path
             d="m 0,0 v 0 c 0.617,-1.86 1.55,-3.41 2.784,-4.649 1.125,-1.241 2.469,-2.17 4.005,-2.791 1.55,-0.723 3.292,-1.033 5.144,-1.033 1.851,0 3.498,0.31 5.143,1.033 1.55,0.518 2.881,1.55 4.019,2.791 1.125,1.239 2.057,2.686 2.675,4.649 0.617,1.756 0.918,3.926 0.918,6.406 0,2.376 -0.301,4.546 -0.918,6.406 -0.618,1.859 -1.55,3.41 -2.675,4.65 -1.138,1.239 -2.469,2.17 -4.019,2.789 -1.645,0.62 -3.292,0.931 -5.239,0.931 -1.756,0 -3.498,-0.311 -5.048,-0.931 C 5.253,19.735 3.909,18.805 2.784,17.565 1.55,16.325 0.617,14.775 0,12.915 -0.714,11.057 -1.029,8.885 -1.029,6.406 -1.029,3.926 -0.714,1.86 0,0 m 2.784,11.779 v 0 c 0.411,1.654 1.125,2.893 2.058,3.927 0.823,1.032 1.851,1.859 3.086,2.376 1.234,0.516 2.468,0.723 3.909,0.723 1.536,0 2.77,-0.207 4.005,-0.723 1.234,-0.517 2.167,-1.344 3.086,-2.376 0.932,-1.035 1.55,-2.273 2.057,-3.927 0.522,-1.55 0.728,-3.307 0.728,-5.373 0,-2.067 -0.206,-3.823 -0.728,-5.475 C 20.478,-0.62 19.86,-1.963 18.928,-2.996 18.009,-4.03 17.076,-4.752 15.842,-5.27 14.607,-5.787 13.373,-6.096 11.837,-6.096 10.492,-6.096 9.162,-5.787 8.023,-5.27 6.789,-4.752 5.761,-4.03 4.842,-2.996 3.909,-1.963 3.195,-0.62 2.784,0.931 2.263,2.583 1.961,4.339 1.961,6.406 c 0,2.066 0.302,3.823 0.823,5.373"
             style="fill:#000000;fill-opacity:1;fill-rule:nonzero;stroke:none"
             id="path101978" /></g><g
           id="g101980"
           transform="translate(384.7812,263.0186)"><path
             d="m 0,0 v 0 15.292 c 0,1.654 0.206,3.203 0.617,4.546 0.411,1.344 0.919,2.48 1.646,3.411 0.727,0.929 1.55,1.653 2.469,2.066 0.933,0.517 1.852,0.723 2.88,0.723 0.617,0 1.139,0 1.55,-0.103 0.508,-0.103 1.029,-0.207 1.536,-0.414 v 2.893 c -0.411,0.104 -0.822,0.207 -1.234,0.31 -0.617,0.105 -1.125,0.105 -1.742,0.105 -1.755,0 -3.291,-0.415 -4.636,-1.448 -1.344,-1.033 -2.469,-2.582 -3.195,-4.753 l -0.412,5.373 h -2.36 L -2.881,0 Z"
             style="fill:#000000;fill-opacity:1;fill-rule:nonzero;stroke:none"
             id="path101982" /></g><g
           id="g101984"
           transform="translate(403.0918,263.0186)"><path
             d="M 0,0 V 0 14.776 L 15.226,0 h 3.909 L 2.99,15.809 17.282,28.001 H 13.374 L 0,16.636 V 38.85 H -2.88 V 0 Z"
             style="fill:#000000;fill-opacity:1;fill-rule:nonzero;stroke:none"
             id="path101986" /></g><g
           id="g101988"
           transform="translate(429.6328,297.8384)"><path
             d="M 0,0 V 0 4.03 H -3.498 V 0 Z m -0.302,-34.82 v 0 28.001 H -3.183 V -34.82 Z"
             style="fill:#000000;fill-opacity:1;fill-rule:nonzero;stroke:none"
             id="path101990" /></g><g
           id="g101992"
           transform="translate(440.5371,263.0186)"><path
             d="m 0,0 v 0 17.462 c 0,1.344 0.206,2.583 0.727,3.72 0.521,1.136 1.138,1.964 1.961,2.79 0.824,0.827 1.743,1.343 2.771,1.756 0.933,0.413 1.961,0.62 2.99,0.62 2.36,0 4.211,-0.62 5.555,-1.86 1.234,-1.342 1.851,-3.099 1.851,-5.475 V 0 h 2.977 v 19.116 c 0,2.995 -0.919,5.372 -2.675,7.128 -1.741,1.757 -4.114,2.585 -6.995,2.585 -1.947,0 -3.703,-0.415 -5.445,-1.344 -1.646,-1.034 -2.88,-2.377 -3.923,-4.236 l -0.302,4.752 H -2.881 V 0 Z"
             style="fill:#000000;fill-opacity:1;fill-rule:nonzero;stroke:none"
             id="path101994" /></g><g
           id="g101996"
           transform="translate(466.9814,260.436)"><path
             d="m 0,0 v 0 c 0.412,-2.583 1.756,-4.546 3.704,-5.89 2.057,-1.343 4.636,-2.066 7.817,-2.066 1.852,0 3.499,0.31 4.939,0.827 1.439,0.516 2.674,1.342 3.703,2.273 0.933,0.929 1.756,2.066 2.263,3.409 0.521,1.24 0.823,2.687 0.823,4.236 V 30.583 H 20.89 l -0.411,-4.855 c -0.933,1.757 -2.167,3.099 -3.814,4.133 -1.741,1.032 -3.703,1.55 -5.966,1.55 C 9.053,31.411 7.517,31.1 6.076,30.48 4.637,29.861 3.292,28.93 2.264,27.794 1.139,26.554 0.315,25.107 -0.302,23.352 c -0.617,-1.757 -0.932,-3.823 -0.932,-6.097 0,-2.171 0.315,-4.132 0.932,-5.889 C 0.315,9.609 1.234,8.162 2.373,7.027 3.402,5.89 4.637,5.063 6.076,4.442 7.517,3.823 9.053,3.513 10.603,3.513 c 2.359,0 4.321,0.516 5.966,1.55 1.646,0.93 2.88,2.273 3.8,3.925 V 2.892 c 0,-2.686 -0.823,-4.649 -2.359,-6.199 -1.55,-1.549 -3.704,-2.273 -6.584,-2.273 -2.167,0 -4.019,0.414 -5.555,1.344 C 4.321,-3.307 3.402,-1.963 3.086,0 Z m 2.469,22.524 v 0 c 0.521,1.447 1.138,2.686 2.057,3.617 0.824,0.929 1.852,1.653 2.991,2.066 1.125,0.517 2.359,0.723 3.593,0.723 1.344,0 2.578,-0.206 3.814,-0.723 1.124,-0.413 2.153,-1.137 2.975,-2.066 0.824,-0.931 1.55,-2.17 1.962,-3.617 0.508,-1.446 0.713,-3.202 0.713,-5.165 0,-2.067 -0.205,-3.823 -0.713,-5.27 C 19.34,10.642 18.627,9.506 17.804,8.576 16.871,7.75 15.843,7.027 14.718,6.715 13.579,6.199 12.345,5.993 11.11,5.993 9.876,5.993 8.642,6.303 7.517,6.819 6.378,7.233 5.35,7.956 4.526,8.988 3.607,9.816 2.99,11.055 2.469,12.398 c -0.411,1.448 -0.713,3.101 -0.713,4.857 0,2.067 0.302,3.719 0.713,5.269"
             style="fill:#000000;fill-opacity:1;fill-rule:nonzero;stroke:none"
             id="path101998" /></g><g
           id="g102000"
           transform="translate(256.2754,206.502)"><path
             d="M 0,0 V 0 L -15.431,38.746 H -19.23 L -34.771,0 h 3.183 L -27.254,10.952 -7.708,10.951 -3.292,0 Z m -17.378,35.853 v 0 l 8.736,-22.319 h -17.584 z"
             style="fill:#000000;fill-opacity:1;fill-rule:nonzero;stroke:none"
             id="path102002" /></g><g
           id="g102004"
           transform="translate(279.5381,214.6641)"><path
             d="m 0,0 v 0 c -0.426,-1.963 -1.249,-3.513 -2.785,-4.754 -1.55,-1.238 -3.402,-1.756 -5.555,-1.756 -1.344,0 -2.579,0.206 -3.703,0.724 -1.139,0.516 -2.167,1.136 -2.99,2.17 -0.919,1.032 -1.647,2.272 -2.058,3.72 -0.508,1.548 -0.823,3.305 -0.823,5.372 0,2.17 0.315,4.029 0.823,5.682 0.411,1.551 1.139,2.893 1.962,3.927 0.822,1.032 1.852,1.86 3.086,2.376 1.124,0.517 2.359,0.723 3.703,0.723 2.153,0 3.909,-0.516 5.35,-1.652 1.439,-1.137 2.358,-2.584 2.674,-4.444 H 2.88 c -0.411,2.584 -1.646,4.65 -3.717,6.201 -2.058,1.549 -4.623,2.376 -7.612,2.376 -1.742,0 -3.292,-0.31 -4.828,-0.931 -1.55,-0.62 -2.881,-1.653 -3.91,-2.892 -1.138,-1.24 -2.057,-2.791 -2.784,-4.754 -0.617,-1.859 -0.919,-4.029 -0.919,-6.509 0,-2.377 0.302,-4.443 0.919,-6.303 0.727,-1.86 1.55,-3.305 2.674,-4.546 1.139,-1.24 2.373,-2.169 4.02,-2.789 1.439,-0.621 3.086,-0.93 4.828,-0.93 1.55,0 2.88,0.206 4.224,0.619 1.33,0.517 2.469,1.137 3.497,1.963 1.029,0.828 1.852,1.653 2.469,2.791 C 2.469,-2.48 2.88,-1.24 3.086,0 Z"
             style="fill:#000000;fill-opacity:1;fill-rule:nonzero;stroke:none"
             id="path102006" /></g><g
           id="g102008"
           transform="translate(291.4707,227.166)"><path
             d="m 0,0 v 0 c 0.206,1.757 0.919,3.203 2.359,4.236 1.344,1.034 3.086,1.551 5.349,1.551 2.373,0 4.225,-0.621 5.665,-1.757 1.33,-1.137 1.947,-2.791 1.947,-4.754 V -3.203 L 6.886,-4.547 C 4.937,-4.96 3.292,-5.373 1.947,-5.786 c -1.33,-0.619 -2.468,-1.24 -3.292,-1.963 -0.919,-0.827 -1.536,-1.653 -1.851,-2.583 -0.411,-1.034 -0.617,-2.066 -0.617,-3.307 0,-1.24 0.206,-2.376 0.727,-3.306 0.507,-0.93 1.124,-1.757 1.947,-2.48 0.728,-0.722 1.756,-1.136 2.881,-1.551 1.138,-0.413 2.469,-0.515 3.813,-0.515 1.234,0 2.359,0.102 3.387,0.413 1.03,0.206 1.962,0.724 2.786,1.137 0.822,0.516 1.536,1.135 2.153,1.86 0.617,0.619 1.139,1.342 1.55,1.963 l 0.411,-4.546 h 2.359 v 19.631 c 0,1.446 -0.302,2.685 -0.713,3.822 C 16.967,3.927 16.254,4.856 15.32,5.682 14.498,6.51 13.373,7.025 12.139,7.542 10.795,7.956 9.354,8.163 7.818,8.163 6.269,8.163 4.937,7.956 3.594,7.542 2.359,7.129 1.234,6.612 0.302,5.89 -0.617,5.27 -1.345,4.34 -1.962,3.306 -2.579,2.273 -2.881,1.239 -2.99,0 Z m 1.234,-17.669 v 0 c -1.343,0.93 -2.057,2.377 -2.057,4.34 0,0.723 0.206,1.55 0.412,2.17 0.302,0.723 0.713,1.344 1.439,1.859 0.618,0.517 1.536,1.034 2.675,1.447 1.028,0.414 2.469,0.827 4.115,1.033 l 7.502,1.343 v -5.269 c 0,-1.239 -0.3,-2.274 -0.713,-3.306 -0.617,-1.034 -1.234,-1.963 -2.167,-2.687 -0.823,-0.723 -1.851,-1.24 -2.88,-1.653 -1.029,-0.414 -2.154,-0.62 -3.291,-0.62 -2.058,0 -3.8,0.414 -5.035,1.343"
             style="fill:#000000;fill-opacity:1;fill-rule:nonzero;stroke:none"
             id="path102010" /></g><g
           id="g102012"
           transform="translate(340.5469,206.502)"><path
             d="M 0,0 V 0 38.746 H -2.881 V 23.04 c -0.822,1.757 -2.056,3.1 -3.703,4.236 -1.756,1.034 -3.607,1.551 -5.87,1.551 -1.647,0 -3.292,-0.309 -4.733,-0.931 -1.44,-0.62 -2.674,-1.55 -3.812,-2.789 -1.029,-1.241 -1.948,-2.894 -2.47,-4.753 -0.713,-1.859 -1.028,-4.133 -1.028,-6.613 0,-2.479 0.315,-4.649 1.028,-6.406 0.522,-1.86 1.441,-3.307 2.47,-4.546 1.138,-1.24 2.372,-2.17 3.812,-2.685 1.441,-0.622 2.881,-0.931 4.527,-0.931 2.359,0 4.32,0.515 6.076,1.653 1.647,1.136 2.881,2.582 3.8,4.443 L -2.373,0 Z m -20.684,19.32 v 0 c 0.507,1.551 1.124,2.893 1.948,3.927 0.932,1.032 1.851,1.86 2.99,2.274 1.125,0.515 2.359,0.825 3.703,0.825 1.331,0 2.565,-0.31 3.703,-0.825 1.125,-0.517 2.168,-1.242 3.087,-2.274 0.727,-1.034 1.44,-2.273 1.961,-3.927 0.508,-1.549 0.713,-3.306 0.713,-5.373 0,-2.17 -0.302,-4.029 -0.822,-5.578 C -3.909,6.818 -4.636,5.475 -5.459,4.546 -6.378,3.512 -7.421,2.789 -8.545,2.272 c -1.139,-0.414 -2.264,-0.62 -3.498,-0.62 -1.344,0 -2.578,0.206 -3.703,0.724 -1.139,0.517 -2.167,1.136 -2.99,2.17 -0.824,1.032 -1.441,2.272 -1.948,3.823 -0.521,1.549 -0.727,3.306 -0.727,5.372 0,2.17 0.206,4.03 0.727,5.579"
             style="fill:#000000;fill-opacity:1;fill-rule:nonzero;stroke:none"
             id="path102014" /></g><g
           id="g102016"
           transform="translate(369.0352,214.1465)"><path
             d="m 0,0 v 0 c -0.508,-1.963 -1.536,-3.408 -3.086,-4.442 -1.44,-1.033 -3.292,-1.55 -5.35,-1.55 -1.44,0 -2.674,0.206 -3.909,0.62 -1.234,0.517 -2.359,1.239 -3.292,2.17 -0.919,0.93 -1.645,2.17 -2.262,3.615 -0.508,1.447 -0.919,3.204 -0.919,5.167 H 3.607 c 0,2.686 -0.411,4.959 -1.029,7.025 -0.617,1.963 -1.439,3.514 -2.578,4.857 -1.125,1.239 -2.469,2.17 -4.115,2.79 -1.536,0.621 -3.182,0.931 -4.938,0.931 -1.742,0 -3.387,-0.31 -5.034,-1.035 -1.55,-0.619 -2.88,-1.549 -4.018,-2.789 -1.125,-1.24 -2.058,-2.791 -2.675,-4.649 -0.713,-1.859 -1.029,-3.926 -1.029,-6.407 0,-2.376 0.316,-4.546 1.029,-6.303 0.727,-1.859 1.646,-3.408 2.785,-4.649 1.234,-1.241 2.564,-2.273 4.21,-2.892 1.646,-0.621 3.402,-0.931 5.254,-0.931 2.976,0 5.554,0.723 7.612,2.273 1.947,1.55 3.292,3.616 4.005,6.199 z m -5.445,18.186 v 0 c 1.125,-0.517 2.153,-1.136 2.976,-2.067 0.823,-0.93 1.55,-1.964 2.058,-3.306 C 0.109,11.47 0.411,9.816 0.521,8.06 h -19.339 c 0.301,3.513 1.33,6.199 3.181,8.059 1.756,1.757 4.02,2.688 6.584,2.688 1.235,0 2.469,-0.208 3.608,-0.621"
             style="fill:#000000;fill-opacity:1;fill-rule:nonzero;stroke:none"
             id="path102018" /></g><g
           id="g102020"
           transform="translate(382.4082,206.502)"><path
             d="m 0,0 v 0 17.357 c 0,1.241 0.206,2.48 0.617,3.514 0.411,1.032 0.933,2.066 1.647,2.893 0.726,0.827 1.549,1.342 2.578,1.859 0.932,0.517 2.057,0.723 3.196,0.723 2.057,0 3.799,-0.619 4.938,-1.755 1.125,-1.24 1.645,-3.101 1.645,-5.58 V 0 h 2.881 v 17.357 c 0,1.241 0.206,2.376 0.617,3.514 0.302,1.032 0.919,2.066 1.536,2.893 0.727,0.827 1.55,1.342 2.469,1.859 1.029,0.517 2.058,0.723 3.196,0.723 2.154,0 3.799,-0.619 5.034,-1.755 C 31.492,23.453 32,21.594 32,19.011 V 0 h 2.99 v 19.217 c 0,3.099 -0.823,5.477 -2.469,7.129 -1.646,1.653 -3.813,2.481 -6.584,2.481 -0.823,0 -1.755,-0.103 -2.579,-0.309 -0.919,-0.208 -1.742,-0.622 -2.564,-1.035 -0.823,-0.413 -1.55,-1.032 -2.264,-1.653 -0.617,-0.724 -1.234,-1.653 -1.756,-2.583 -0.617,1.859 -1.645,3.204 -2.975,4.133 -1.441,0.93 -3.196,1.447 -5.35,1.447 -1.645,0 -3.292,-0.415 -4.842,-1.24 C 2.058,26.761 0.823,25.417 -0.096,23.66 L -0.411,27.999 -2.88,28 V 0 Z"
             style="fill:#000000;fill-opacity:1;fill-rule:nonzero;stroke:none"
             id="path102022" /></g><g
           id="g102024"
           transform="translate(447.0244,234.501)"><path
             d="M 0,0 V 0 H -2.88 L -11.727,-25.829 -21.712,0 h -3.183 l 11.111,-27.999 h 1.125 c -0.412,-1.55 -0.919,-2.895 -1.235,-3.927 -0.412,-0.93 -0.823,-1.859 -1.125,-2.48 -0.412,-0.619 -0.823,-1.033 -1.234,-1.343 -0.412,-0.207 -0.933,-0.413 -1.55,-0.413 -0.412,0 -0.823,0.102 -1.234,0.102 -0.508,0.104 -1.029,0.207 -1.441,0.414 v -2.376 c 0.412,-0.207 0.933,-0.31 1.441,-0.414 0.411,-0.103 0.933,-0.103 1.439,-0.103 1.03,0 1.756,0.103 2.47,0.517 0.727,0.413 1.344,0.929 1.852,1.756 0.617,0.827 1.137,1.86 1.645,3.203 0.522,1.344 1.139,2.893 1.756,4.752 z"
             style="fill:#000000;fill-opacity:1;fill-rule:nonzero;stroke:none"
             id="path102026" /></g></g></g></g></svg>
